<svg xmlns="http://www.w3.org/2000/svg" fill="none" viewBox="0 0 500 90" width="500" height="90"><defs><clipPath id="assetClipPath_hbcPC69n"><path d="m0 0 h 661 v 231 h -661 v -231 z" id="path_1V3aM1PF" fill="#ffffff" /></clipPath></defs><g transform="translate(-64 -70)" data-asset-index="-1"><g clip-path="url(#assetClipPath_hbcPC69n)" transform="scale(1 1)" data-asset-index="-1"><path fill="#FFFFFF" d="M100.73 125.51L100.73 125.51Q100.73 128.59 99.69 131.00Q98.64 133.41 96.85 135.08Q95.05 136.76 92.58 137.65Q90.10 138.54 87.29 138.54L87.29 138.54Q84.15 138.54 81.62 137.41Q79.09 136.28 77.28 133.68L77.28 133.68L77.28 137.75L70.92 137.75L70.92 123.19L77.28 123.19Q77.28 125.38 78.05 127.05Q78.82 128.73 80.08 129.87Q81.35 131.02 83.02 131.62Q84.70 132.21 86.58 132.21L86.58 132.21Q89.76 132.21 91.70 130.74Q93.65 129.27 93.65 126.06L93.65 126.06Q93.65 124.39 93.05 123.19Q92.46 121.99 91.35 121.05Q90.23 120.11 88.63 119.41Q87.02 118.71 84.97 117.93L84.97 117.93Q82.54 117.11 80.12 116.08Q77.69 115.06 75.78 113.55Q73.86 112.05 72.67 109.84Q71.47 107.64 71.47 104.29L71.47 104.29Q71.47 101.35 72.55 99.15Q73.62 96.94 75.42 95.44Q77.21 93.93 79.59 93.16Q81.96 92.39 84.63 92.39L84.63 92.39Q87.71 92.39 89.91 93.69Q92.11 94.99 93.31 97.15L93.31 97.15L93.31 93.15L99.67 93.15L99.67 107.02L93.31 107.02Q93.31 103.09 91.24 100.89Q89.17 98.68 85.69 98.68L85.69 98.68Q82.61 98.68 80.58 100.12Q78.54 101.55 78.54 104.15L78.54 104.15Q78.54 105.49 79.07 106.43Q79.60 107.37 80.61 108.13Q81.62 108.90 83.16 109.57Q84.70 110.24 86.71 111.02L86.71 111.02Q89.24 111.91 91.74 113.04Q94.23 114.17 96.22 115.81Q98.20 117.45 99.46 119.79Q100.73 122.13 100.73 125.51Z" /><path fill="#FFFFFF" d="M135.01 131.39L135.01 137.75L113.61 137.75L113.61 131.39L120.59 131.39L120.59 99.54L113.61 99.54L113.61 93.15L127.66 93.15L127.66 131.39L135.01 131.39Z" /><path fill="#FFFFFF" d="M179.61 124.52L152.92 124.52Q153.43 127.80 156.05 129.98Q158.66 132.15 163.07 132.15L163.07 132.15Q166.52 132.15 169.07 131.07Q171.62 129.99 173.46 128.21L173.46 128.21L177.08 133.21Q174.01 136.28 170.57 137.41Q167.14 138.54 163.07 138.54L163.07 138.54Q159.38 138.54 156.20 137.31Q153.02 136.08 150.70 133.87Q148.37 131.67 147.06 128.63Q145.74 125.58 145.74 121.86L145.74 121.86Q145.74 118.23 146.96 115.18Q148.17 112.12 150.37 109.88Q152.58 107.64 155.65 106.39Q158.73 105.14 162.46 105.14L162.46 105.14Q166.32 105.14 169.46 106.46Q172.61 107.78 174.85 110.27Q177.08 112.77 178.35 116.37Q179.61 119.98 179.61 124.52L179.61 124.52ZM153.23 118.30L171.62 118.30Q171.07 115.23 168.44 113.36Q165.81 111.50 162.46 111.50L162.46 111.50Q159.11 111.50 156.44 113.36Q153.77 115.23 153.23 118.30L153.23 118.30Z" /><path fill="#FFFFFF" d="M217.83 124.52L191.13 124.52Q191.65 127.80 194.26 129.98Q196.88 132.15 201.28 132.15L201.28 132.15Q204.74 132.15 207.28 131.07Q209.83 129.99 211.67 128.21L211.67 128.21L215.30 133.21Q212.22 136.28 208.79 137.41Q205.35 138.54 201.28 138.54L201.28 138.54Q197.59 138.54 194.41 137.31Q191.24 136.08 188.91 133.87Q186.59 131.67 185.27 128.63Q183.96 125.58 183.96 121.86L183.96 121.86Q183.96 118.23 185.17 115.18Q186.38 112.12 188.59 109.88Q190.79 107.64 193.87 106.39Q196.94 105.14 200.67 105.14L200.67 105.14Q204.53 105.14 207.68 106.46Q210.82 107.78 213.06 110.27Q215.30 112.77 216.56 116.37Q217.83 119.98 217.83 124.52L217.83 124.52ZM191.44 118.30L209.83 118.30Q209.28 115.23 206.65 113.36Q204.02 111.50 200.67 111.50L200.67 111.50Q197.32 111.50 194.65 113.36Q191.99 115.23 191.44 118.30L191.44 118.30Z" /><path fill="#FFFFFF" d="M224.53 150.50L224.53 105.90L231.60 105.90L231.60 108.77Q233.62 106.96 235.69 106.05Q237.75 105.14 240.42 105.14L240.42 105.14Q243.50 105.14 246.13 106.39Q248.76 107.64 250.64 109.84Q252.52 112.05 253.61 115.14Q254.71 118.23 254.71 121.86L254.71 121.86Q254.71 125.51 253.61 128.59Q252.52 131.67 250.64 133.87Q248.76 136.08 246.13 137.31Q243.50 138.54 240.42 138.54L240.42 138.54Q237.75 138.54 235.69 137.58Q233.62 136.62 231.60 134.81L231.60 134.81L231.60 150.50L224.53 150.50ZM231.60 114.37L231.60 129.21Q232.87 130.61 234.83 131.38Q236.80 132.15 238.61 132.15L238.61 132.15Q242.61 132.15 245.12 129.31Q247.63 126.47 247.63 121.86L247.63 121.86Q247.63 117.24 245.12 114.37Q242.61 111.50 238.61 111.50L238.61 111.50Q236.80 111.50 234.83 112.24Q232.87 112.97 231.60 114.37L231.60 114.37Z" /><path fill="#FFFFFF" d="M287.86 131.39L287.86 137.75L266.46 137.75L266.46 131.39L273.44 131.39L273.44 99.54L266.46 99.54L266.46 93.15L280.51 93.15L280.51 131.39L287.86 131.39Z" /><path fill="#FFFFFF" d="M332.47 124.52L305.77 124.52Q306.28 127.80 308.90 129.98Q311.51 132.15 315.92 132.15L315.92 132.15Q319.38 132.15 321.92 131.07Q324.47 129.99 326.31 128.21L326.31 128.21L329.94 133.21Q326.86 136.28 323.43 137.41Q319.99 138.54 315.92 138.54L315.92 138.54Q312.23 138.54 309.05 137.31Q305.87 136.08 303.55 133.87Q301.23 131.67 299.91 128.63Q298.59 125.58 298.59 121.86L298.59 121.86Q298.59 118.23 299.81 115.18Q301.02 112.12 303.23 109.88Q305.43 107.64 308.51 106.39Q311.58 105.14 315.31 105.14L315.31 105.14Q319.17 105.14 322.31 106.46Q325.46 107.78 327.70 110.27Q329.94 112.77 331.20 116.37Q332.47 119.98 332.47 124.52L332.47 124.52ZM306.08 118.30L324.47 118.30Q323.92 115.23 321.29 113.36Q318.66 111.50 315.31 111.50L315.31 111.50Q311.96 111.50 309.29 113.36Q306.63 115.23 306.08 118.30L306.08 118.30Z" /><path fill="#FFFFFF" d="M368.49 128.21L368.49 128.21Q368.49 131.33 367.09 133.27Q365.69 135.22 363.48 136.42Q361.28 137.61 358.56 138.08Q355.84 138.54 353.25 138.54L353.25 138.54Q348.91 138.54 344.60 137.27Q340.29 136.01 337.15 133.96L337.15 133.96L340.09 128.15Q343.85 130.33 346.98 131.24Q350.10 132.15 353.25 132.15L353.25 132.15Q357.52 132.15 359.47 131.24Q361.42 130.33 361.42 128.73L361.42 128.73Q361.42 127.94 360.87 127.43Q360.32 126.92 359.06 126.49Q357.79 126.06 355.73 125.63Q353.66 125.21 350.58 124.73L350.58 124.73Q348.12 124.32 345.92 123.72Q343.71 123.12 342.04 122.03Q340.36 120.93 339.35 119.26Q338.34 117.58 338.34 115.06L338.34 115.06Q338.34 112.49 339.66 110.60Q340.98 108.70 343.11 107.47Q345.25 106.24 347.92 105.69Q350.58 105.14 353.25 105.14L353.25 105.14Q357.01 105.14 360.54 106.12Q364.08 107.09 366.75 108.90L366.75 108.90L363.95 114.37Q361.28 112.70 358.77 112.10Q356.25 111.50 353.25 111.50L353.25 111.50Q351.98 111.50 350.62 111.64Q349.25 111.77 348.09 112.17Q346.92 112.56 346.15 113.23Q345.39 113.89 345.39 114.85L345.39 114.85Q345.39 116.12 347.62 116.92Q349.86 117.72 355.26 118.51L355.26 118.51Q358.20 118.92 360.63 119.55Q363.06 120.18 364.80 121.26Q366.54 122.34 367.52 124.03Q368.49 125.72 368.49 128.21Z" /><path fill="#FFFFFF" d="M406.70 128.21L406.70 128.21Q406.70 131.33 405.30 133.27Q403.90 135.22 401.70 136.42Q399.49 137.61 396.77 138.08Q394.06 138.54 391.46 138.54L391.46 138.54Q387.12 138.54 382.81 137.27Q378.51 136.01 375.36 133.96L375.36 133.96L378.30 128.15Q382.06 130.33 385.19 131.24Q388.32 132.15 391.46 132.15L391.46 132.15Q395.73 132.15 397.68 131.24Q399.63 130.33 399.63 128.73L399.63 128.73Q399.63 127.94 399.08 127.43Q398.54 126.92 397.27 126.49Q396.01 126.06 393.94 125.63Q391.87 125.21 388.79 124.73L388.79 124.73Q386.33 124.32 384.13 123.72Q381.92 123.12 380.25 122.03Q378.57 120.93 377.57 119.26Q376.56 117.58 376.56 115.06L376.56 115.06Q376.56 112.49 377.87 110.60Q379.19 108.70 381.33 107.47Q383.46 106.24 386.13 105.69Q388.79 105.14 391.46 105.14L391.46 105.14Q395.22 105.14 398.76 106.12Q402.29 107.09 404.96 108.90L404.96 108.90L402.16 114.37Q399.49 112.70 396.98 112.10Q394.47 111.50 391.46 111.50L391.46 111.50Q390.20 111.50 388.83 111.64Q387.46 111.77 386.30 112.17Q385.14 112.56 384.37 113.23Q383.60 113.89 383.60 114.85L383.60 114.85Q383.60 116.12 385.84 116.92Q388.08 117.72 393.48 118.51L393.48 118.51Q396.42 118.92 398.84 119.55Q401.27 120.18 403.01 121.26Q404.76 122.34 405.73 124.03Q406.70 125.72 406.70 128.21Z" /><path fill="#FFFFFF" d="M444.10 118.10L444.10 137.75L437.02 137.75L437.02 118.10Q437.02 114.37 435.62 112.94Q434.22 111.50 431.55 111.50L431.55 111.50Q427.62 111.50 425.14 114.68Q422.67 117.86 422.67 123.46L422.67 123.46L422.67 137.75L415.59 137.75L415.59 105.90L422.67 105.90L422.67 113.89Q423.73 109.76 426.60 107.45Q429.47 105.14 433.67 105.14L433.67 105.14Q438.56 105.14 441.33 108.32Q444.10 111.50 444.10 118.10L444.10 118.10Z" /><path fill="#FFFFFF" d="M485.32 124.52L458.62 124.52Q459.14 127.80 461.75 129.98Q464.37 132.15 468.77 132.15L468.77 132.15Q472.23 132.15 474.77 131.07Q477.32 129.99 479.17 128.21L479.17 128.21L482.79 133.21Q479.71 136.28 476.28 137.41Q472.84 138.54 468.77 138.54L468.77 138.54Q465.08 138.54 461.90 137.31Q458.73 136.08 456.40 133.87Q454.08 131.67 452.76 128.63Q451.45 125.58 451.45 121.86L451.45 121.86Q451.45 118.23 452.66 115.18Q453.87 112.12 456.08 109.88Q458.28 107.64 461.36 106.39Q464.43 105.14 468.16 105.14L468.16 105.14Q472.02 105.14 475.17 106.46Q478.31 107.78 480.55 110.27Q482.79 112.77 484.05 116.37Q485.32 119.98 485.32 124.52L485.32 124.52ZM458.93 118.30L477.32 118.30Q476.77 115.23 474.14 113.36Q471.51 111.50 468.16 111.50L468.16 111.50Q464.81 111.50 462.14 113.36Q459.48 115.23 458.93 118.30L458.93 118.30Z" /><path fill="#FFFFFF" d="M521.34 128.21L521.34 128.21Q521.34 131.33 519.94 133.27Q518.54 135.22 516.34 136.42Q514.13 137.61 511.41 138.08Q508.70 138.54 506.10 138.54L506.10 138.54Q501.76 138.54 497.45 137.27Q493.14 136.01 490 133.96L490 133.96L492.94 128.15Q496.70 130.33 499.83 131.24Q502.95 132.15 506.10 132.15L506.10 132.15Q510.37 132.15 512.32 131.24Q514.27 130.33 514.27 128.73L514.27 128.73Q514.27 127.94 513.72 127.43Q513.17 126.92 511.91 126.49Q510.64 126.06 508.58 125.63Q506.51 125.21 503.43 124.73L503.43 124.73Q500.97 124.32 498.77 123.72Q496.56 123.12 494.89 122.03Q493.21 120.93 492.20 119.26Q491.20 117.58 491.20 115.06L491.20 115.06Q491.20 112.49 492.51 110.60Q493.83 108.70 495.96 107.47Q498.10 106.24 500.77 105.69Q503.43 105.14 506.10 105.14L506.10 105.14Q509.86 105.14 513.40 106.12Q516.93 107.09 519.60 108.90L519.60 108.90L516.80 114.37Q514.13 112.70 511.62 112.10Q509.11 111.50 506.10 111.50L506.10 111.50Q504.83 111.50 503.47 111.64Q502.10 111.77 500.94 112.17Q499.78 112.56 499.01 113.23Q498.24 113.89 498.24 114.85L498.24 114.85Q498.24 116.12 500.48 116.92Q502.71 117.72 508.12 118.51L508.12 118.51Q511.05 118.92 513.48 119.55Q515.91 120.18 517.65 121.26Q519.39 122.34 520.37 124.03Q521.34 125.72 521.34 128.21Z" /><path fill="#FFFFFF" d="M559.56 128.21L559.56 128.21Q559.56 131.33 558.15 133.27Q556.75 135.22 554.55 136.42Q552.34 137.61 549.63 138.08Q546.91 138.54 544.31 138.54L544.31 138.54Q539.97 138.54 535.66 137.27Q531.36 136.01 528.21 133.96L528.21 133.96L531.15 128.15Q534.91 130.33 538.04 131.24Q541.17 132.15 544.31 132.15L544.31 132.15Q548.58 132.15 550.53 131.24Q552.48 130.33 552.48 128.73L552.48 128.73Q552.48 127.94 551.93 127.43Q551.39 126.92 550.12 126.49Q548.86 126.06 546.79 125.63Q544.72 125.21 541.65 124.73L541.65 124.73Q539.18 124.32 536.98 123.72Q534.78 123.12 533.10 122.03Q531.43 120.93 530.42 119.26Q529.41 117.58 529.41 115.06L529.41 115.06Q529.41 112.49 530.73 110.60Q532.04 108.70 534.18 107.47Q536.31 106.24 538.98 105.69Q541.65 105.14 544.31 105.14L544.31 105.14Q548.07 105.14 551.61 106.12Q555.15 107.09 557.81 108.90L557.81 108.90L555.01 114.37Q552.34 112.70 549.83 112.10Q547.32 111.50 544.31 111.50L544.31 111.50Q543.05 111.50 541.68 111.64Q540.31 111.77 539.15 112.17Q537.99 112.56 537.22 113.23Q536.45 113.89 536.45 114.85L536.45 114.85Q536.45 116.12 538.69 116.92Q540.93 117.72 546.33 118.51L546.33 118.51Q549.27 118.92 551.69 119.55Q554.12 120.18 555.86 121.26Q557.61 122.34 558.58 124.03Q559.56 125.72 559.56 128.21Z" /></g></g></svg>