<svg width="350" height="90" xmlns="http://www.w3.org/2000/svg" fill="none">
 <defs>
  <clipPath id="assetClipPath_hbcPC69n">
   <path fill="#ffffff" id="path_1V3aM1PF" d="m-64,-70l661,0l0,231l-661,0l0,-231z"/>
  </clipPath>
 </defs>
 <g>
  <title>Layer 1</title>
  <g id="svg_1" data-asset-index="-1">
   <g id="svg_2" data-asset-index="-1" transform="translate(-64 -70) scale(1 1)" clip-path="url(#assetClipPath_hbcPC69n)">
    <path id="svg_3" d="m100.73,125.51l0,0q0,3.08 -1.04,5.49q-1.05,2.41 -2.84,4.08q-1.8,1.68 -4.27,2.57q-2.48,0.89 -5.29,0.89l0,0q-3.14,0 -5.67,-1.13q-2.53,-1.13 -4.34,-3.73l0,0l0,4.07l-6.36,0l0,-14.56l6.36,0q0,2.19 0.77,3.86q0.77,1.68 2.03,2.82q1.27,1.15 2.94,1.75q1.68,0.59 3.56,0.59l0,0q3.18,0 5.12,-1.47q1.95,-1.47 1.95,-4.68l0,0q0,-1.67 -0.6,-2.87q-0.59,-1.2 -1.7,-2.14q-1.12,-0.94 -2.72,-1.64q-1.61,-0.7 -3.66,-1.48l0,0q-2.43,-0.82 -4.85,-1.85q-2.43,-1.02 -4.34,-2.53q-1.92,-1.5 -3.11,-3.71q-1.2,-2.2 -1.2,-5.55l0,0q0,-2.94 1.08,-5.14q1.07,-2.21 2.87,-3.71q1.79,-1.51 4.17,-2.28q2.37,-0.77 5.04,-0.77l0,0q3.08,0 5.28,1.3q2.2,1.3 3.4,3.46l0,0l0,-4l6.36,0l0,13.87l-6.36,0q0,-3.93 -2.07,-6.13q-2.07,-2.21 -5.55,-2.21l0,0q-3.08,0 -5.11,1.44q-2.04,1.43 -2.04,4.03l0,0q0,1.34 0.53,2.28q0.53,0.94 1.54,1.7q1.01,0.77 2.55,1.44q1.54,0.67 3.55,1.45l0,0q2.53,0.89 5.03,2.02q2.49,1.13 4.48,2.77q1.98,1.64 3.24,3.98q1.27,2.34 1.27,5.72z" fill="#FFFFFF"/>
    <path id="svg_4" d="m135.01,131.39l0,6.36l-21.4,0l0,-6.36l6.98,0l0,-31.85l-6.98,0l0,-6.39l14.05,0l0,38.24l7.35,0z" fill="#FFFFFF"/>
    <path id="svg_5" d="m179.61,124.52l-26.69,0q0.51,3.28 3.13,5.46q2.61,2.17 7.02,2.17l0,0q3.45,0 6,-1.08q2.55,-1.08 4.39,-2.86l0,0l3.62,5q-3.07,3.07 -6.51,4.2q-3.43,1.13 -7.5,1.13l0,0q-3.69,0 -6.87,-1.23q-3.18,-1.23 -5.5,-3.44q-2.33,-2.2 -3.64,-5.24q-1.32,-3.05 -1.32,-6.77l0,0q0,-3.63 1.22,-6.68q1.21,-3.06 3.41,-5.3q2.21,-2.24 5.28,-3.49q3.08,-1.25 6.81,-1.25l0,0q3.86,0 7,1.32q3.15,1.32 5.39,3.81q2.23,2.5 3.5,6.1q1.26,3.61 1.26,8.15l0,0zm-26.38,-6.22l18.39,0q-0.55,-3.07 -3.18,-4.94q-2.63,-1.86 -5.98,-1.86l0,0q-3.35,0 -6.02,1.86q-2.67,1.87 -3.21,4.94l0,0z" fill="#FFFFFF"/>
    <path id="svg_6" d="m217.83,124.52l-26.7,0q0.52,3.28 3.13,5.46q2.62,2.17 7.02,2.17l0,0q3.46,0 6,-1.08q2.55,-1.08 4.39,-2.86l0,0l3.63,5q-3.08,3.07 -6.51,4.2q-3.44,1.13 -7.51,1.13l0,0q-3.69,0 -6.87,-1.23q-3.17,-1.23 -5.5,-3.44q-2.32,-2.2 -3.64,-5.24q-1.31,-3.05 -1.31,-6.77l0,0q0,-3.63 1.21,-6.68q1.21,-3.06 3.42,-5.3q2.2,-2.24 5.28,-3.49q3.07,-1.25 6.8,-1.25l0,0q3.86,0 7.01,1.32q3.14,1.32 5.38,3.81q2.24,2.5 3.5,6.1q1.27,3.61 1.27,8.15l0,0zm-26.39,-6.22l18.39,0q-0.55,-3.07 -3.18,-4.94q-2.63,-1.86 -5.98,-1.86l0,0q-3.35,0 -6.02,1.86q-2.66,1.87 -3.21,4.94l0,0z" fill="#FFFFFF"/>
    <path id="svg_7" d="m224.53,150.5l0,-44.6l7.07,0l0,2.87q2.02,-1.81 4.09,-2.72q2.06,-0.91 4.73,-0.91l0,0q3.08,0 5.71,1.25q2.63,1.25 4.51,3.45q1.88,2.21 2.97,5.3q1.1,3.09 1.1,6.72l0,0q0,3.65 -1.1,6.73q-1.09,3.08 -2.97,5.28q-1.88,2.21 -4.51,3.44q-2.63,1.23 -5.71,1.23l0,0q-2.67,0 -4.73,-0.96q-2.07,-0.96 -4.09,-2.77l0,0l0,15.69l-7.07,0zm7.07,-36.13l0,14.84q1.27,1.4 3.23,2.17q1.97,0.77 3.78,0.77l0,0q4,0 6.51,-2.84q2.51,-2.84 2.51,-7.45l0,0q0,-4.62 -2.51,-7.49q-2.51,-2.87 -6.51,-2.87l0,0q-1.81,0 -3.78,0.74q-1.96,0.73 -3.23,2.13l0,0z" fill="#FFFFFF"/>
    <path id="svg_8" d="m287.86,131.39l0,6.36l-21.4,0l0,-6.36l6.98,0l0,-31.85l-6.98,0l0,-6.39l14.05,0l0,38.24l7.35,0z" fill="#FFFFFF"/>
    <path id="svg_9" d="m332.47,124.52l-26.7,0q0.51,3.28 3.13,5.46q2.61,2.17 7.02,2.17l0,0q3.46,0 6,-1.08q2.55,-1.08 4.39,-2.86l0,0l3.63,5q-3.08,3.07 -6.51,4.2q-3.44,1.13 -7.51,1.13l0,0q-3.69,0 -6.87,-1.23q-3.18,-1.23 -5.5,-3.44q-2.32,-2.2 -3.64,-5.24q-1.32,-3.05 -1.32,-6.77l0,0q0,-3.63 1.22,-6.68q1.21,-3.06 3.42,-5.3q2.2,-2.24 5.28,-3.49q3.07,-1.25 6.8,-1.25l0,0q3.86,0 7,1.32q3.15,1.32 5.39,3.81q2.24,2.5 3.5,6.1q1.27,3.61 1.27,8.15l0,0zm-26.39,-6.22l18.39,0q-0.55,-3.07 -3.18,-4.94q-2.63,-1.86 -5.98,-1.86l0,0q-3.35,0 -6.02,1.86q-2.66,1.87 -3.21,4.94l0,0z" fill="#FFFFFF"/>
    <path id="svg_10" d="m368.49,128.21l0,0q0,3.12 -1.4,5.06q-1.4,1.95 -3.61,3.15q-2.2,1.19 -4.92,1.66q-2.72,0.46 -5.31,0.46l0,0q-4.34,0 -8.65,-1.27q-4.31,-1.26 -7.45,-3.31l0,0l2.94,-5.81q3.76,2.18 6.89,3.09q3.12,0.91 6.27,0.91l0,0q4.27,0 6.22,-0.91q1.95,-0.91 1.95,-2.51l0,0q0,-0.79 -0.55,-1.3q-0.55,-0.51 -1.81,-0.94q-1.27,-0.43 -3.33,-0.86q-2.07,-0.42 -5.15,-0.9l0,0q-2.46,-0.41 -4.66,-1.01q-2.21,-0.6 -3.88,-1.69q-1.68,-1.1 -2.69,-2.77q-1.01,-1.68 -1.01,-4.2l0,0q0,-2.57 1.32,-4.46q1.32,-1.9 3.45,-3.13q2.14,-1.23 4.81,-1.78q2.66,-0.55 5.33,-0.55l0,0q3.76,0 7.29,0.98q3.54,0.97 6.21,2.78l0,0l-2.8,5.47q-2.67,-1.67 -5.18,-2.27q-2.52,-0.6 -5.52,-0.6l0,0q-1.27,0 -2.63,0.14q-1.37,0.13 -2.53,0.53q-1.17,0.39 -1.94,1.06q-0.76,0.66 -0.76,1.62l0,0q0,1.27 2.23,2.07q2.24,0.8 7.64,1.59l0,0q2.94,0.41 5.37,1.04q2.43,0.63 4.17,1.71q1.74,1.08 2.72,2.77q0.97,1.69 0.97,4.18z" fill="#FFFFFF"/>
    <path id="svg_11" d="m406.7,128.21l0,0q0,3.12 -1.4,5.06q-1.4,1.95 -3.6,3.15q-2.21,1.19 -4.93,1.66q-2.71,0.46 -5.31,0.46l0,0q-4.34,0 -8.65,-1.27q-4.3,-1.26 -7.45,-3.31l0,0l2.94,-5.81q3.76,2.18 6.89,3.09q3.13,0.91 6.27,0.91l0,0q4.27,0 6.22,-0.91q1.95,-0.91 1.95,-2.51l0,0q0,-0.79 -0.55,-1.3q-0.54,-0.51 -1.81,-0.94q-1.26,-0.43 -3.33,-0.86q-2.07,-0.42 -5.15,-0.9l0,0q-2.46,-0.41 -4.66,-1.01q-2.21,-0.6 -3.88,-1.69q-1.68,-1.1 -2.68,-2.77q-1.01,-1.68 -1.01,-4.2l0,0q0,-2.57 1.31,-4.46q1.32,-1.9 3.46,-3.13q2.13,-1.23 4.8,-1.78q2.66,-0.55 5.33,-0.55l0,0q3.76,0 7.3,0.98q3.53,0.97 6.2,2.78l0,0l-2.8,5.47q-2.67,-1.67 -5.18,-2.27q-2.51,-0.6 -5.52,-0.6l0,0q-1.26,0 -2.63,0.14q-1.37,0.13 -2.53,0.53q-1.16,0.39 -1.93,1.06q-0.77,0.66 -0.77,1.62l0,0q0,1.27 2.24,2.07q2.24,0.8 7.64,1.59l0,0q2.94,0.41 5.36,1.04q2.43,0.63 4.17,1.71q1.75,1.08 2.72,2.77q0.97,1.69 0.97,4.18z" fill="#FFFFFF"/>
    <path id="svg_12" d="m444.1,118.1l0,19.65l-7.08,0l0,-19.65q0,-3.73 -1.4,-5.16q-1.4,-1.44 -4.07,-1.44l0,0q-3.93,0 -6.41,3.18q-2.47,3.18 -2.47,8.78l0,0l0,14.29l-7.08,0l0,-31.85l7.08,0l0,7.99q1.06,-4.13 3.93,-6.44q2.87,-2.31 7.07,-2.31l0,0q4.89,0 7.66,3.18q2.77,3.18 2.77,9.78l0,0z" fill="#FFFFFF"/>
    <path id="svg_13" d="m485.32,124.52l-26.7,0q0.52,3.28 3.13,5.46q2.62,2.17 7.02,2.17l0,0q3.46,0 6,-1.08q2.55,-1.08 4.4,-2.86l0,0l3.62,5q-3.08,3.07 -6.51,4.2q-3.44,1.13 -7.51,1.13l0,0q-3.69,0 -6.87,-1.23q-3.17,-1.23 -5.5,-3.44q-2.32,-2.2 -3.64,-5.24q-1.31,-3.05 -1.31,-6.77l0,0q0,-3.63 1.21,-6.68q1.21,-3.06 3.42,-5.3q2.2,-2.24 5.28,-3.49q3.07,-1.25 6.8,-1.25l0,0q3.86,0 7.01,1.32q3.14,1.32 5.38,3.81q2.24,2.5 3.5,6.1q1.27,3.61 1.27,8.15l0,0zm-26.39,-6.22l18.39,0q-0.55,-3.07 -3.18,-4.94q-2.63,-1.86 -5.98,-1.86l0,0q-3.35,0 -6.02,1.86q-2.66,1.87 -3.21,4.94l0,0z" fill="#FFFFFF"/>
    <path id="svg_14" d="m521.34,128.21l0,0q0,3.12 -1.4,5.06q-1.4,1.95 -3.6,3.15q-2.21,1.19 -4.93,1.66q-2.71,0.46 -5.31,0.46l0,0q-4.34,0 -8.65,-1.27q-4.31,-1.26 -7.45,-3.31l0,0l2.94,-5.81q3.76,2.18 6.89,3.09q3.12,0.91 6.27,0.91l0,0q4.27,0 6.22,-0.91q1.95,-0.91 1.95,-2.51l0,0q0,-0.79 -0.55,-1.3q-0.55,-0.51 -1.81,-0.94q-1.27,-0.43 -3.33,-0.86q-2.07,-0.42 -5.15,-0.9l0,0q-2.46,-0.41 -4.66,-1.01q-2.21,-0.6 -3.88,-1.69q-1.68,-1.1 -2.69,-2.77q-1,-1.68 -1,-4.2l0,0q0,-2.57 1.31,-4.46q1.32,-1.9 3.45,-3.13q2.14,-1.23 4.81,-1.78q2.66,-0.55 5.33,-0.55l0,0q3.76,0 7.3,0.98q3.53,0.97 6.2,2.78l0,0l-2.8,5.47q-2.67,-1.67 -5.18,-2.27q-2.51,-0.6 -5.52,-0.6l0,0q-1.27,0 -2.63,0.14q-1.37,0.13 -2.53,0.53q-1.16,0.39 -1.93,1.06q-0.77,0.66 -0.77,1.62l0,0q0,1.27 2.24,2.07q2.23,0.8 7.64,1.59l0,0q2.93,0.41 5.36,1.04q2.43,0.63 4.17,1.71q1.74,1.08 2.72,2.77q0.97,1.69 0.97,4.18z" fill="#FFFFFF"/>
    <path id="svg_15" d="m559.56,128.21l0,0q0,3.12 -1.41,5.06q-1.4,1.95 -3.6,3.15q-2.21,1.19 -4.92,1.66q-2.72,0.46 -5.32,0.46l0,0q-4.34,0 -8.65,-1.27q-4.3,-1.26 -7.45,-3.31l0,0l2.94,-5.81q3.76,2.18 6.89,3.09q3.13,0.91 6.27,0.91l0,0q4.27,0 6.22,-0.91q1.95,-0.91 1.95,-2.51l0,0q0,-0.79 -0.55,-1.3q-0.54,-0.51 -1.81,-0.94q-1.26,-0.43 -3.33,-0.86q-2.07,-0.42 -5.14,-0.9l0,0q-2.47,-0.41 -4.67,-1.01q-2.2,-0.6 -3.88,-1.69q-1.67,-1.1 -2.68,-2.77q-1.01,-1.68 -1.01,-4.2l0,0q0,-2.57 1.32,-4.46q1.31,-1.9 3.45,-3.13q2.13,-1.23 4.8,-1.78q2.67,-0.55 5.33,-0.55l0,0q3.76,0 7.3,0.98q3.54,0.97 6.2,2.78l0,0l-2.8,5.47q-2.67,-1.67 -5.18,-2.27q-2.51,-0.6 -5.52,-0.6l0,0q-1.26,0 -2.63,0.14q-1.37,0.13 -2.53,0.53q-1.16,0.39 -1.93,1.06q-0.77,0.66 -0.77,1.62l0,0q0,1.27 2.24,2.07q2.24,0.8 7.64,1.59l0,0q2.94,0.41 5.36,1.04q2.43,0.63 4.17,1.71q1.75,1.08 2.72,2.77q0.98,1.69 0.98,4.18z" fill="#FFFFFF"/>
   </g>
  </g>
 </g>
</svg>